<?xml version="1.0" encoding="UTF-8" standalone="no"?>
<!-- Created with Inkscape (http://www.inkscape.org/) -->

<svg
   width="210mm"
   height="297mm"
   viewBox="0 0 210 297"
   version="1.1"
   id="svg5"
   inkscape:version="1.2.2 (732a01da63, 2022-12-09)"
   sodipodi:docname="icon.svg"
   inkscape:export-filename="icon.png"
   inkscape:export-xdpi="145.14285"
   inkscape:export-ydpi="145.14285"
   xmlns:inkscape="http://www.inkscape.org/namespaces/inkscape"
   xmlns:sodipodi="http://sodipodi.sourceforge.net/DTD/sodipodi-0.dtd"
   xmlns="http://www.w3.org/2000/svg"
   xmlns:svg="http://www.w3.org/2000/svg">
  <sodipodi:namedview
     id="namedview7"
     pagecolor="#ffffff"
     bordercolor="#000000"
     borderopacity="0.25"
     inkscape:showpageshadow="2"
     inkscape:pageopacity="0.0"
     inkscape:pagecheckerboard="0"
     inkscape:deskcolor="#d1d1d1"
     inkscape:document-units="mm"
     showgrid="false"
     inkscape:zoom="1"
     inkscape:cx="962"
     inkscape:cy="366"
     inkscape:window-width="2560"
     inkscape:window-height="1334"
     inkscape:window-x="-11"
     inkscape:window-y="-11"
     inkscape:window-maximized="1"
     inkscape:current-layer="g12122"
     showguides="true">
    <sodipodi:guide
       position="162.05729,154.2573"
       orientation="0,-1"
       id="guide12156"
       inkscape:locked="false" />
  </sodipodi:namedview>
  <defs
     id="defs2">
    <rect
       x="406.5"
       y="53"
       width="62"
       height="25"
       id="rect7849" />
    <rect
       x="389"
       y="49"
       width="93.5"
       height="42"
       id="rect7843" />
    <rect
       x="408"
       y="55"
       width="92"
       height="151.5"
       id="rect7620" />
    <rect
       x="417"
       y="94.5"
       width="177.5"
       height="174.5"
       id="rect617" />
    <rect
       x="226"
       y="158"
       width="51.5"
       height="45"
       id="rect611" />
  </defs>
  <g
     inkscape:label="Layer 1"
     inkscape:groupmode="layer"
     id="layer1">
    <text
       xml:space="preserve"
       style="font-size:3.175px;fill:#000080;stroke-width:0.264583"
       x="118.40104"
       y="15.213541"
       id="text623"><tspan
         sodipodi:role="line"
         id="tspan621"
         style="stroke-width:0.264583"></tspan></text>
    <g
       id="g12122"
       transform="matrix(6.0933754,0,0,10.753271,-219.47055,-331.42091)">
      <g
         id="g12106">
        <rect
           style="fill:none;stroke:#120003;stroke-width:0.413;stroke-dasharray:none;stroke-opacity:1"
           id="rect2267"
           width="33.885555"
           height="27.270973"
           x="36.172321"
           y="31.012953" />
        <path
           style="opacity:0.173077;fill:none;stroke:#190506;stroke-width:0.264583;stroke-opacity:0.90678"
           d="m 37.041666,43.523958 c 10.583333,14.155208 10.583333,14.155208 10.583333,14.155208 l 0.264584,-0.264583"
           id="path2390" />
        <path
           style="opacity:0.25;fill:none;stroke:#000000;stroke-width:0.255793;stroke-opacity:1"
           d="m 52.643599,57.828448 1.695263,-26.616223 c -1.292254,0 14.861012,14.809948 14.861012,14.809948 L 38.444055,43.490559 43.871552,31.212225 63.255469,56.908118 68.941415,52.604372 50.332854,31.338807 36.764117,41.338685 68.424517,39.060232 40.640901,57.28786 36.634893,49.566434 61.317073,31.718549 55.877317,57.598131"
           id="path2394"
           sodipodi:nodetypes="cccccccccccccc" />
        <text
           xml:space="preserve"
           style="font-size:3.175px;white-space:pre;inline-size:6.72827;display:inline;opacity:1;fill:#0b0a0a;fill-opacity:1;stroke:#070404;stroke-width:0.0706815;stroke-miterlimit:4.2;stroke-dasharray:none;stroke-opacity:1"
           x="49.212498"
           y="43.391666"
           id="text5163"
           transform="matrix(9.4861888,0,0,7.5962531,-424.4842,-276.42626)"><tspan
             x="49.212498"
             y="43.391666"
             id="tspan12208">X</tspan></text>
        <g
           aria-label="Product"
           transform="matrix(2.6810323,0.02624793,-0.02060562,1.8531415,-55.516768,-71.859005)"
           id="text5269"
           style="font-size:3.175px;white-space:pre;inline-size:20.1807;opacity:1;fill:#ff0000;fill-opacity:1;stroke:none;stroke-width:0.372297;stroke-linejoin:bevel;stroke-miterlimit:4.2;stroke-dasharray:none;stroke-opacity:1">
          <path
             d="m 36.4802,61.360078 q 0,0.153479 -0.05426,0.285254 -0.05271,0.130225 -0.148828,0.226343 -0.119373,0.119373 -0.282154,0.179834 -0.16278,0.05891 -0.410827,0.05891 h -0.306958 v 0.860413 h -0.306958 v -2.308386 h 0.626318 q 0.207739,0 0.351917,0.03566 0.144177,0.03411 0.255798,0.108521 0.131775,0.08837 0.203088,0.220141 0.07286,0.131775 0.07286,0.333313 z m -0.31936,0.0078 q 0,-0.119373 -0.04186,-0.207739 -0.04186,-0.08837 -0.127124,-0.144178 -0.07441,-0.04806 -0.170532,-0.06821 -0.09457,-0.02171 -0.240296,-0.02171 h -0.303857 v 0.922425 h 0.258899 q 0.186035,0 0.302307,-0.03256 0.116272,-0.03411 0.189136,-0.106971 0.07286,-0.07441 0.102319,-0.156579 0.03101,-0.08217 0.03101,-0.184485 z"
             style="fill:#ff0000;fill-opacity:1;stroke:none;stroke-width:0.372297;stroke-dasharray:none;stroke-opacity:1"
             id="path6825" />
          <path
             d="m 37.942126,61.556966 h -0.0155 q -0.06511,-0.0155 -0.127125,-0.0217 -0.06046,-0.0078 -0.144177,-0.0078 -0.134875,0 -0.260449,0.06046 -0.125574,0.05891 -0.241846,0.153479 v 1.229382 H 36.861574 V 61.23911 h 0.291455 v 0.255798 q 0.173633,-0.139526 0.305408,-0.196887 0.133325,-0.05891 0.271301,-0.05891 0.07596,0 0.110071,0.0046 0.03411,0.0031 0.102319,0.01395 z"
             style="fill:#ff0000;fill-opacity:1;stroke:none;stroke-width:0.372297;stroke-dasharray:none;stroke-opacity:1"
             id="path6827" />
          <path
             d="m 39.692407,62.105769 q 0,0.42323 -0.217041,0.668177 -0.217041,0.244946 -0.58136,0.244946 -0.367419,0 -0.58446,-0.244946 -0.215491,-0.244947 -0.215491,-0.668177 0,-0.42323 0.215491,-0.668176 0.217041,-0.246496 0.58446,-0.246496 0.364319,0 0.58136,0.246496 0.217041,0.244946 0.217041,0.668176 z m -0.300757,0 q 0,-0.336413 -0.131774,-0.499194 -0.131775,-0.164331 -0.36587,-0.164331 -0.237194,0 -0.368969,0.164331 -0.130225,0.162781 -0.130225,0.499194 0,0.325562 0.131775,0.494544 0.131775,0.167431 0.367419,0.167431 0.232544,0 0.364319,-0.165881 0.133325,-0.167432 0.133325,-0.496094 z"
             style="fill:#ff0000;fill-opacity:1;stroke:none;stroke-width:0.372297;stroke-dasharray:none;stroke-opacity:1"
             id="path6829" />
          <path
             d="m 41.548108,62.970833 h -0.291455 v -0.181384 q -0.125574,0.10852 -0.262,0.168981 -0.136426,0.06046 -0.296106,0.06046 -0.310058,0 -0.492993,-0.238745 Q 40.02417,62.5414 40.02417,62.11817 q 0,-0.220142 0.06201,-0.392224 0.06356,-0.172083 0.170533,-0.293006 0.10542,-0.117822 0.244946,-0.179834 0.141077,-0.06201 0.291455,-0.06201 0.136426,0 0.241846,0.02945 0.10542,0.02791 0.221692,0.08837 v -0.750342 h 0.291455 z m -0.291455,-0.426331 v -0.993738 q -0.117823,-0.05271 -0.21084,-0.07286 -0.09302,-0.02015 -0.203089,-0.02015 -0.244946,0 -0.381372,0.170532 -0.136425,0.170532 -0.136425,0.483692 0,0.308508 0.105419,0.469738 0.10542,0.15968 0.337964,0.15968 0.124024,0 0.251148,-0.05426 0.127124,-0.05581 0.237195,-0.142627 z"
             style="fill:#ff0000;fill-opacity:1;stroke:none;stroke-width:0.372297;stroke-dasharray:none;stroke-opacity:1"
             id="path6831" />
          <path
             d="m 43.557288,62.970833 h -0.291455 v -0.192237 q -0.147278,0.116272 -0.282154,0.178284 -0.134875,0.06201 -0.297656,0.06201 -0.272851,0 -0.42478,-0.165881 -0.151929,-0.167432 -0.151929,-0.489893 v -1.123962 h 0.291455 v 0.985986 q 0,0.131775 0.0124,0.226343 0.0124,0.09302 0.05271,0.15968 0.04186,0.06821 0.10852,0.09922 0.06666,0.03101 0.193787,0.03101 0.113171,0 0.246496,-0.05891 0.134876,-0.05891 0.251148,-0.150378 v -1.292944 h 0.291455 z"
             style="fill:#ff0000;fill-opacity:1;stroke:none;stroke-width:0.372297;stroke-dasharray:none;stroke-opacity:1"
             id="path6833" />
          <path
             d="m 45.411438,62.862312 q -0.145728,0.06976 -0.277503,0.108521 -0.130224,0.03876 -0.277502,0.03876 -0.187586,0 -0.344165,-0.05426 -0.15658,-0.05581 -0.268201,-0.167432 -0.113171,-0.111621 -0.175183,-0.282153 -0.06201,-0.170532 -0.06201,-0.398425 0,-0.424781 0.232544,-0.666626 0.234094,-0.241846 0.617017,-0.241846 0.148828,0 0.291455,0.04186 0.144177,0.04186 0.26355,0.102319 v 0.324011 h -0.0155 q -0.133326,-0.103869 -0.275952,-0.15968 -0.141077,-0.05581 -0.275953,-0.05581 -0.248047,0 -0.392224,0.167431 -0.142627,0.165882 -0.142627,0.488343 0,0.313159 0.139527,0.482141 0.141076,0.167431 0.395324,0.167431 0.08837,0 0.179834,-0.02325 0.09147,-0.02325 0.164331,-0.06046 0.06356,-0.03256 0.119373,-0.06821 0.05581,-0.03721 0.08837,-0.06356 h 0.0155 z"
             style="fill:#ff0000;fill-opacity:1;stroke:none;stroke-width:0.372297;stroke-dasharray:none;stroke-opacity:1"
             id="path6835" />
          <path
             d="m 46.684228,62.95533 q -0.08217,0.0217 -0.179834,0.03566 -0.09612,0.01395 -0.172083,0.01395 -0.2651,0 -0.403076,-0.142627 -0.137976,-0.142627 -0.137976,-0.457336 v -0.920874 h -0.196887 v -0.244946 h 0.196887 v -0.497644 h 0.291455 v 0.497644 h 0.601514 v 0.244946 h -0.601514 v 0.789099 q 0,0.136426 0.0062,0.21394 0.0062,0.07596 0.04341,0.142627 0.03411,0.06201 0.09302,0.09147 0.06046,0.02791 0.182935,0.02791 0.07131,0 0.148828,-0.02015 0.07751,-0.0217 0.111621,-0.03566 h 0.0155 z"
             style="fill:#ff0000;fill-opacity:1;stroke:none;stroke-width:0.372297;stroke-dasharray:none;stroke-opacity:1"
             id="path6837" />
        </g>
      </g>
    </g>
    <text
       xml:space="preserve"
       transform="scale(0.26458333)"
       id="text7841"
       style="white-space:pre;shape-inside:url(#rect7843);display:inline;opacity:1;fill:#23ccbf;fill-opacity:1;stroke:#060a0b;stroke-width:2.59276;stroke-linecap:butt;stroke-linejoin:bevel;stroke-miterlimit:4.2;stroke-dasharray:none;stroke-opacity:1" />
    <text
       xml:space="preserve"
       transform="scale(0.26458333)"
       id="text7847"
       style="white-space:pre;shape-inside:url(#rect7849);display:inline;opacity:1;fill:#23ccbf;fill-opacity:1;stroke:#060a0b;stroke-width:2.59276;stroke-linecap:butt;stroke-linejoin:bevel;stroke-miterlimit:4.2;stroke-dasharray:none;stroke-opacity:1" />
  </g>
</svg>
